<svg width="69" height="69" viewBox="0 0 69 69" fill="none" xmlns="http://www.w3.org/2000/svg">
<g clip-path="url(#clip0_14_331)">
<path d="M68.1214 42.2155C72.3813 23.6455 60.7807 5.13817 42.2107 0.878253C23.6407 -3.38167 5.13335 8.21895 0.87343 26.789C-3.38649 45.359 8.21413 63.8663 26.7841 68.1262C45.3541 72.3861 63.8615 60.7855 68.1214 42.2155Z" fill="#B9C4E1"/>
<path d="M34.4972 48.6723C41.9081 48.6723 47.9158 40.3512 47.9158 30.0866C47.9158 19.822 41.9081 11.5009 34.4972 11.5009C27.0863 11.5009 21.0786 19.822 21.0786 30.0866C21.0786 40.3512 27.0863 48.6723 34.4972 48.6723Z" fill="white"/>
<path d="M34.2896 47.4844C23.055 47.4844 13.0137 50.1798 6.33374 54.4094C9.50676 58.9025 13.7086 62.5713 18.5886 65.1095C23.4685 67.6477 28.8848 68.9816 34.3853 68.9999C39.8858 69.0181 45.3109 67.7202 50.2075 65.2144C55.1042 62.7087 59.3303 59.0678 62.5331 54.5959C55.8584 50.2597 45.6839 47.4844 34.2896 47.4844Z" fill="white"/>
<path d="M36.5428 34.4973H32.4517C29.6215 34.4973 27.3271 36.7916 27.3271 39.6218V51.2825C27.3271 54.1127 29.6215 56.4071 32.4517 56.4071H36.5428C39.373 56.4071 41.6673 54.1127 41.6673 51.2825V39.6218C41.6673 36.7916 39.373 34.4973 36.5428 34.4973Z" fill="white"/>
<path d="M23.1988 31.1413C23.5984 34.1244 22.9378 36.708 21.7179 36.9158C20.4981 37.1235 19.1876 34.8755 18.7881 31.8924C18.3886 28.9093 19.0491 26.3311 20.2424 26.102C21.4356 25.873 22.794 28.1636 23.1988 31.1413Z" fill="white"/>
<path d="M45.8117 31.1413C45.4069 34.1244 46.0727 36.708 47.2873 36.9158C48.5018 37.1235 49.8176 34.8755 50.2224 31.8924C50.6273 28.9093 49.9508 26.3311 48.7309 26.102C47.511 25.873 46.2006 28.1636 45.8117 31.1413Z" fill="white"/>
<path d="M21.5476 29.3568C21.093 26.3808 20.642 23.4048 20.1945 20.4288C20.0294 19.3634 19.8696 18.2128 20.2638 17.1901C20.658 16.1673 21.8193 15.3629 22.842 15.7464C22.4319 13.6743 24.7224 12.1454 26.7147 11.4849C30.0468 10.2542 33.6173 9.80584 37.1502 10.1745C40.7003 10.568 43.9949 12.2106 46.4458 14.8089C47.2177 15.6257 47.8141 16.592 48.1983 17.6482C48.8855 19.6884 48.4487 21.9097 48.0065 24.0405L46.9412 29.0638C46.8916 29.4502 46.743 29.8172 46.5097 30.1292C46.0942 30.5927 45.391 30.6246 44.7678 30.63L24.8023 30.6726C23.5558 30.6726 21.9205 30.3636 21.7553 29.1278" fill="white"/>
</g>
<defs>
<clipPath id="clip0_14_331">
<rect width="69" height="69" fill="white"/>
</clipPath>
</defs>
</svg>
